<svg id="visual" viewBox="0 0 900 600" width="900" height="600" xmlns="http://www.w3.org/2000/svg" xmlns:xlink="http://www.w3.org/1999/xlink" version="1.1"><g stroke-width="1" stroke-linejoin="bevel"><path d="M426 236.1L407 204.4L407 208.4Z" fill="#6746e3" stroke="#6746e3"></path><path d="M426 236.1L526 141.4L407 204.4Z" fill="#5c3ece" stroke="#5c3ece"></path><path d="M511 244.1L526 141.4L426 236.1Z" fill="#5c3ece" stroke="#5c3ece"></path><path d="M407 204.4L327 232.1L407 208.4Z" fill="#5c3ece" stroke="#5c3ece"></path><path d="M407 208.4L327 232.1L426 236.1Z" fill="#5c3ece" stroke="#5c3ece"></path><path d="M426 236.1L430 370.9L511 244.1Z" fill="#6242d8" stroke="#6242d8"></path><path d="M270 208.4L327 232.1L247 114.7Z" fill="#6746e3" stroke="#6746e3"></path><path d="M526 141.4L479 63.7L407 204.4Z" fill="#472ea5" stroke="#472ea5"></path><path d="M327 232.1L336 319.9L426 236.1Z" fill="#6242d8" stroke="#6242d8"></path><path d="M300 269.1L336 319.9L327 232.1Z" fill="#6746e3" stroke="#6746e3"></path><path d="M511 244.1L588 136.4L526 141.4Z" fill="#382388" stroke="#382388"></path><path d="M526 141.4L582 62.7L479 63.7Z" fill="#4c32af" stroke="#4c32af"></path><path d="M336 319.9L430 370.9L426 236.1Z" fill="#5c3ece" stroke="#5c3ece"></path><path d="M511 244.1L633 275.1L588 136.4Z" fill="#6746e3" stroke="#6746e3"></path><path d="M327 232.1L270 208.4L300 269.1Z" fill="#5136b9" stroke="#5136b9"></path><path d="M357 48.7L327 232.1L407 204.4Z" fill="#6242d8" stroke="#6242d8"></path><path d="M479 63.7L357 48.7L407 204.4Z" fill="#3d2691" stroke="#3d2691"></path><path d="M571 366.9L597 314.9L511 244.1Z" fill="#573ac3" stroke="#573ac3"></path><path d="M588 136.4L582 62.7L526 141.4Z" fill="#382388" stroke="#382388"></path><path d="M479 63.7L409 0L357 48.7Z" fill="#6242d8" stroke="#6242d8"></path><path d="M597 314.9L633 275.1L511 244.1Z" fill="#422a9b" stroke="#422a9b"></path><path d="M588 136.4L593 59.7L582 62.7Z" fill="#422a9b" stroke="#422a9b"></path><path d="M336 319.9L404 410.6L430 370.9Z" fill="#573ac3" stroke="#573ac3"></path><path d="M430 370.9L571 366.9L511 244.1Z" fill="#3d2691" stroke="#3d2691"></path><path d="M583 381.6L571 366.9L528 470.6Z" fill="#4c32af" stroke="#4c32af"></path><path d="M690 355.9L673 271.1L633 275.1Z" fill="#331f7e" stroke="#331f7e"></path><path d="M497 0L409 0L479 63.7Z" fill="#331f7e" stroke="#331f7e"></path><path d="M756 83.7L593 59.7L588 136.4Z" fill="#573ac3" stroke="#573ac3"></path><path d="M582 62.7L497 0L479 63.7Z" fill="#331f7e" stroke="#331f7e"></path><path d="M262 0L247 114.7L357 48.7Z" fill="#4c32af" stroke="#4c32af"></path><path d="M357 48.7L247 114.7L327 232.1Z" fill="#6746e3" stroke="#6746e3"></path><path d="M603 0L497 0L582 62.7Z" fill="#5c3ece" stroke="#5c3ece"></path><path d="M137 264.1L244 302.9L270 208.4Z" fill="#6746e3" stroke="#6746e3"></path><path d="M270 208.4L244 302.9L300 269.1Z" fill="#573ac3" stroke="#573ac3"></path><path d="M300 269.1L244 302.9L336 319.9Z" fill="#573ac3" stroke="#573ac3"></path><path d="M336 319.9L311 424.6L404 410.6Z" fill="#472ea5" stroke="#472ea5"></path><path d="M474 437.6L571 366.9L430 370.9Z" fill="#3d2691" stroke="#3d2691"></path><path d="M571 366.9L583 381.6L597 314.9Z" fill="#422a9b" stroke="#422a9b"></path><path d="M247 114.7L218 142.4L270 208.4Z" fill="#6242d8" stroke="#6242d8"></path><path d="M404 410.6L474 437.6L430 370.9Z" fill="#3d2691" stroke="#3d2691"></path><path d="M409 0L330 0L357 48.7Z" fill="#573ac3" stroke="#573ac3"></path><path d="M247 114.7L204 124.7L218 142.4Z" fill="#3d2691" stroke="#3d2691"></path><path d="M690 355.9L633 275.1L597 314.9Z" fill="#472ea5" stroke="#472ea5"></path><path d="M633 275.1L717 208.4L588 136.4Z" fill="#5c3ece" stroke="#5c3ece"></path><path d="M193 0L204 124.7L247 114.7Z" fill="#472ea5" stroke="#472ea5"></path><path d="M137 264.1L206 350.9L244 302.9Z" fill="#573ac3" stroke="#573ac3"></path><path d="M244 302.9L311 424.6L336 319.9Z" fill="#5c3ece" stroke="#5c3ece"></path><path d="M404 410.6L453 471.3L474 437.6Z" fill="#573ac3" stroke="#573ac3"></path><path d="M749 0L603 0L593 59.7Z" fill="#6242d8" stroke="#6242d8"></path><path d="M593 59.7L603 0L582 62.7Z" fill="#573ac3" stroke="#573ac3"></path><path d="M351 551.3L453 471.3L404 410.6Z" fill="#6746e3" stroke="#6746e3"></path><path d="M474 437.6L528 470.6L571 366.9Z" fill="#382388" stroke="#382388"></path><path d="M330 0L262 0L357 48.7Z" fill="#331f7e" stroke="#331f7e"></path><path d="M137 264.1L270 208.4L218 142.4Z" fill="#573ac3" stroke="#573ac3"></path><path d="M244 302.9L206 350.9L311 424.6Z" fill="#6746e3" stroke="#6746e3"></path><path d="M673 271.1L717 208.4L633 275.1Z" fill="#5c3ece" stroke="#5c3ece"></path><path d="M453 471.3L528 470.6L474 437.6Z" fill="#422a9b" stroke="#422a9b"></path><path d="M583 381.6L690 355.9L597 314.9Z" fill="#331f7e" stroke="#331f7e"></path><path d="M752 417.6L690 355.9L649 549.3Z" fill="#4c32af" stroke="#4c32af"></path><path d="M673 271.1L838 248.1L717 208.4Z" fill="#6746e3" stroke="#6746e3"></path><path d="M206 350.9L198 380.6L311 424.6Z" fill="#5c3ece" stroke="#5c3ece"></path><path d="M89 345.9L198 380.6L206 350.9Z" fill="#6242d8" stroke="#6242d8"></path><path d="M129 274.1L137 264.1L99 163.4Z" fill="#422a9b" stroke="#422a9b"></path><path d="M99 163.4L137 264.1L218 142.4Z" fill="#5136b9" stroke="#5136b9"></path><path d="M99 163.4L218 142.4L204 124.7Z" fill="#331f7e" stroke="#331f7e"></path><path d="M137 264.1L129 274.1L206 350.9Z" fill="#6242d8" stroke="#6242d8"></path><path d="M262 0L193 0L247 114.7Z" fill="#3d2691" stroke="#3d2691"></path><path d="M776 126.4L756 83.7L717 208.4Z" fill="#5136b9" stroke="#5136b9"></path><path d="M717 208.4L756 83.7L588 136.4Z" fill="#4c32af" stroke="#4c32af"></path><path d="M44 95.7L99 163.4L204 124.7Z" fill="#6746e3" stroke="#6746e3"></path><path d="M185 492.3L311 424.6L198 380.6Z" fill="#573ac3" stroke="#573ac3"></path><path d="M185 492.3L274 509.3L311 424.6Z" fill="#6746e3" stroke="#6746e3"></path><path d="M311 424.6L351 551.3L404 410.6Z" fill="#382388" stroke="#382388"></path><path d="M453 471.3L557 543.3L528 470.6Z" fill="#6242d8" stroke="#6242d8"></path><path d="M829 129.7L776 126.4L838 248.1Z" fill="#3d2691" stroke="#3d2691"></path><path d="M274 509.3L351 551.3L311 424.6Z" fill="#573ac3" stroke="#573ac3"></path><path d="M519 600L557 543.3L453 471.3Z" fill="#3d2691" stroke="#3d2691"></path><path d="M528 470.6L649 549.3L583 381.6Z" fill="#3d2691" stroke="#3d2691"></path><path d="M756 83.7L749 0L593 59.7Z" fill="#422a9b" stroke="#422a9b"></path><path d="M804 0L749 0L756 83.7Z" fill="#5c3ece" stroke="#5c3ece"></path><path d="M649 549.3L690 355.9L583 381.6Z" fill="#5c3ece" stroke="#5c3ece"></path><path d="M690 355.9L784 380.9L673 271.1Z" fill="#3d2691" stroke="#3d2691"></path><path d="M0 234.1L89 345.9L129 274.1Z" fill="#573ac3" stroke="#573ac3"></path><path d="M129 274.1L89 345.9L206 350.9Z" fill="#6242d8" stroke="#6242d8"></path><path d="M297 600L359 600L351 551.3Z" fill="#4c32af" stroke="#4c32af"></path><path d="M79 444.6L185 492.3L198 380.6Z" fill="#6746e3" stroke="#6746e3"></path><path d="M752 417.6L784 380.9L690 355.9Z" fill="#4c32af" stroke="#4c32af"></path><path d="M359 600L439 600L351 551.3Z" fill="#5136b9" stroke="#5136b9"></path><path d="M351 551.3L439 600L453 471.3Z" fill="#4c32af" stroke="#4c32af"></path><path d="M838 248.1L776 126.4L717 208.4Z" fill="#4c32af" stroke="#4c32af"></path><path d="M776 126.4L829 129.7L756 83.7Z" fill="#3d2691" stroke="#3d2691"></path><path d="M784 380.9L838 248.1L673 271.1Z" fill="#422a9b" stroke="#422a9b"></path><path d="M439 600L519 600L453 471.3Z" fill="#5136b9" stroke="#5136b9"></path><path d="M557 543.3L649 549.3L528 470.6Z" fill="#331f7e" stroke="#331f7e"></path><path d="M658 600L649 549.3L557 543.3Z" fill="#4c32af" stroke="#4c32af"></path><path d="M752 417.6L773 434.6L784 380.9Z" fill="#382388" stroke="#382388"></path><path d="M297 600L351 551.3L274 509.3Z" fill="#573ac3" stroke="#573ac3"></path><path d="M765 500.3L773 434.6L752 417.6Z" fill="#5136b9" stroke="#5136b9"></path><path d="M900 356.9L900 230.1L838 248.1Z" fill="#331f7e" stroke="#331f7e"></path><path d="M77 0L44 95.7L204 124.7Z" fill="#573ac3" stroke="#573ac3"></path><path d="M99 163.4L0 234.1L129 274.1Z" fill="#3d2691" stroke="#3d2691"></path><path d="M193 0L77 0L204 124.7Z" fill="#6746e3" stroke="#6746e3"></path><path d="M215 600L297 600L274 509.3Z" fill="#5c3ece" stroke="#5c3ece"></path><path d="M829 129.7L804 0L756 83.7Z" fill="#6242d8" stroke="#6242d8"></path><path d="M0 413.6L79 444.6L89 345.9Z" fill="#4c32af" stroke="#4c32af"></path><path d="M89 345.9L79 444.6L198 380.6Z" fill="#331f7e" stroke="#331f7e"></path><path d="M185 492.3L215 600L274 509.3Z" fill="#3d2691" stroke="#3d2691"></path><path d="M649 549.3L765 500.3L752 417.6Z" fill="#5c3ece" stroke="#5c3ece"></path><path d="M900 356.9L838 248.1L784 380.9Z" fill="#6242d8" stroke="#6242d8"></path><path d="M0 49.7L0 186.4L44 95.7Z" fill="#6242d8" stroke="#6242d8"></path><path d="M44 95.7L0 186.4L99 163.4Z" fill="#3d2691" stroke="#3d2691"></path><path d="M0 186.4L0 234.1L99 163.4Z" fill="#3d2691" stroke="#3d2691"></path><path d="M519 600L658 600L557 543.3Z" fill="#5c3ece" stroke="#5c3ece"></path><path d="M649 549.3L704 600L765 500.3Z" fill="#5c3ece" stroke="#5c3ece"></path><path d="M53 543.3L215 600L185 492.3Z" fill="#382388" stroke="#382388"></path><path d="M900 412.6L784 380.9L773 434.6Z" fill="#5c3ece" stroke="#5c3ece"></path><path d="M838 248.1L900 230.1L829 129.7Z" fill="#5c3ece" stroke="#5c3ece"></path><path d="M829 129.7L900 60.7L804 0Z" fill="#6242d8" stroke="#6242d8"></path><path d="M0 234.1L0 352.9L89 345.9Z" fill="#6242d8" stroke="#6242d8"></path><path d="M900 230.1L900 140.4L829 129.7Z" fill="#6242d8" stroke="#6242d8"></path><path d="M77 0L0 49.7L44 95.7Z" fill="#5c3ece" stroke="#5c3ece"></path><path d="M819 600L817 484.3L765 500.3Z" fill="#472ea5" stroke="#472ea5"></path><path d="M765 500.3L817 484.3L773 434.6Z" fill="#5136b9" stroke="#5136b9"></path><path d="M658 600L704 600L649 549.3Z" fill="#382388" stroke="#382388"></path><path d="M900 140.4L900 60.7L829 129.7Z" fill="#573ac3" stroke="#573ac3"></path><path d="M900 412.6L900 356.9L784 380.9Z" fill="#573ac3" stroke="#573ac3"></path><path d="M77 0L0 0L0 49.7Z" fill="#472ea5" stroke="#472ea5"></path><path d="M0 352.9L0 413.6L89 345.9Z" fill="#6746e3" stroke="#6746e3"></path><path d="M79 444.6L53 543.3L185 492.3Z" fill="#5c3ece" stroke="#5c3ece"></path><path d="M817 484.3L900 412.6L773 434.6Z" fill="#4c32af" stroke="#4c32af"></path><path d="M900 487.3L900 412.6L817 484.3Z" fill="#382388" stroke="#382388"></path><path d="M900 60.7L900 0L804 0Z" fill="#573ac3" stroke="#573ac3"></path><path d="M0 413.6L53 543.3L79 444.6Z" fill="#6242d8" stroke="#6242d8"></path><path d="M819 600L900 487.3L817 484.3Z" fill="#3d2691" stroke="#3d2691"></path><path d="M704 600L819 600L765 500.3Z" fill="#382388" stroke="#382388"></path><path d="M0 560.3L46 600L53 543.3Z" fill="#5136b9" stroke="#5136b9"></path><path d="M53 543.3L46 600L215 600Z" fill="#6242d8" stroke="#6242d8"></path><path d="M0 413.6L0 560.3L53 543.3Z" fill="#6242d8" stroke="#6242d8"></path><path d="M0 560.3L0 600L46 600Z" fill="#472ea5" stroke="#472ea5"></path><path d="M819 600L900 600L900 487.3Z" fill="#472ea5" stroke="#472ea5"></path></g></svg>